<svg xmlns="http://www.w3.org/2000/svg" width="24" height="24" viewBox="0 0 24 24"><g transform="translate(0)"><path d="M22.243,2.182H4.364v.157L4.14,1.571A2.193,2.193,0,0,0,2.045,0H.545a.545.545,0,0,0,0,1.091h1.5a1.1,1.1,0,0,1,1.047.786l3.4,11.64-1.74,2.174A1.757,1.757,0,0,0,6.12,18.545H21.273a.545.545,0,0,0,0-1.091H6.12a.666.666,0,0,1-.52-1.082l1.753-2.191h10.7a2.192,2.192,0,0,0,1.975-1.253L23.833,4.84A1.771,1.771,0,0,0,24,4.093V3.939a1.758,1.758,0,0,0-1.757-1.757Z"/><path d="M87.515,384a2.182,2.182,0,1,0,2.182,2.182A2.182,2.182,0,0,0,87.515,384Zm0,3.273a1.091,1.091,0,1,1,1.091-1.091,1.091,1.091,0,0,1-1.091,1.091Z" transform="translate(-80.969 -364.364)"/><path d="M343.515,384a2.182,2.182,0,1,0,2.182,2.182A2.182,2.182,0,0,0,343.515,384Zm0,3.273a1.091,1.091,0,1,1,1.091-1.091,1.091,1.091,0,0,1-1.091,1.091Z" transform="translate(-323.878 -364.364)"/></g></svg>