<svg xmlns="http://www.w3.org/2000/svg" xmlns:xlink="http://www.w3.org/1999/xlink" width="24" height="24" viewBox="0 0 24 24"><defs><style>.a{fill:url(#a);}.b{fill:url(#b);}.c{fill:url(#c);}.d{fill:url(#d);}.e{fill:#fff;}</style><linearGradient id="a" x1="0.332" y1="0.141" x2="0.585" y2="0.682" gradientUnits="objectBoundingBox"><stop offset="0" stop-color="#3457a0"/><stop offset="1" stop-color="#3b5998"/></linearGradient><linearGradient id="b" x1="0.714" y1="0.647" x2="-0.271" y2="-0.03" gradientUnits="objectBoundingBox"><stop offset="0" stop-color="#3457a0" stop-opacity="0"/><stop offset="1" stop-color="#1f3f77"/></linearGradient><linearGradient id="c" x1="0.5" y1="0.177" x2="0.5" y2="0.855" xlink:href="#b"/><linearGradient id="d" x1="1.26" y1="0.791" x2="0.043" y2="0.371" gradientUnits="objectBoundingBox"><stop offset="0" stop-color="#3457a0" stop-opacity="0"/><stop offset="0.325" stop-color="#2a4c8d" stop-opacity="0.325"/><stop offset="0.705" stop-color="#22427d" stop-opacity="0.706"/><stop offset="1" stop-color="#1f3f77"/></linearGradient></defs><path class="a" d="M19.707,23.589a72.49,72.49,0,0,1-15.415,0A4.37,4.37,0,0,1,.411,19.707a72.489,72.489,0,0,1,0-15.414A4.37,4.37,0,0,1,4.293.41a72.489,72.489,0,0,1,15.414,0,4.37,4.37,0,0,1,3.882,3.882,72.489,72.489,0,0,1,0,15.414,4.37,4.37,0,0,1-3.882,3.882Zm0,0" transform="translate(0 0.001)"/><path class="b" d="M49.766,32.644A3.878,3.878,0,0,0,46.321,29.2a64.349,64.349,0,0,0-13.678,0A3.878,3.878,0,0,0,29.2,32.644a64.348,64.348,0,0,0,0,13.678,3.878,3.878,0,0,0,3.445,3.445,64.324,64.324,0,0,0,13.678,0,3.878,3.878,0,0,0,3.445-3.445A64.324,64.324,0,0,0,49.766,32.644Zm0,0" transform="translate(-27.482 -27.483)"/><path class="c" d="M7.672,409.805q.025.249.051.5a4.37,4.37,0,0,0,3.882,3.882,72.489,72.489,0,0,0,15.414,0A4.37,4.37,0,0,0,30.9,410.3q.027-.249.051-.5Zm0,0" transform="translate(-7.312 -390.595)"/><path class="d" d="M225.8,85.27a3.786,3.786,0,0,0-3.786,3.786v2.828h-2.038v3.5l2.038,1.825v8.061a72.649,72.649,0,0,0,7.358-.41,4.37,4.37,0,0,0,3.882-3.882,72.476,72.476,0,0,0,.313-11.47l-4.24-4.24Zm0,0" transform="translate(-209.665 -81.272)"/><path class="e" d="M222.014,105.272q2.1-.01,4.194-.142V95.386h2.783l.336-3.5h-3.119V89.661a.889.889,0,0,1,.889-.889h2.23v-3.5H225.8a3.786,3.786,0,0,0-3.786,3.786v2.828h-2.038v3.5h2.038Zm0,0" transform="translate(-209.665 -81.273)"/></svg>