<svg xmlns="http://www.w3.org/2000/svg" xmlns:xlink="http://www.w3.org/1999/xlink" width="24" height="24" viewBox="0 0 24 24"><defs><style>.a{fill:url(#a);}.b{fill:url(#b);}.c{fill:url(#c);}.d{fill:url(#d);}.e{fill:url(#e);}.f{fill:url(#f);}.g{fill:url(#g);}.h{fill:#fff;}</style><radialGradient id="a" cx="0.205" cy="0.874" r="1.103" gradientTransform="translate(0)" gradientUnits="objectBoundingBox"><stop offset="0" stop-color="#fae100"/><stop offset="0.054" stop-color="#fadc04"/><stop offset="0.117" stop-color="#fbce0e"/><stop offset="0.183" stop-color="#fcb720"/><stop offset="0.251" stop-color="#fe9838"/><stop offset="0.305" stop-color="#ff7950"/><stop offset="0.492" stop-color="#ff1c74"/><stop offset="1" stop-color="#6c1cd1"/></radialGradient><linearGradient id="b" x1="0.5" y1="0.413" x2="0.5" y2="1.193" gradientUnits="objectBoundingBox"><stop offset="0" stop-color="#fae100" stop-opacity="0"/><stop offset="0.307" stop-color="#fca800" stop-opacity="0.306"/><stop offset="0.627" stop-color="#fe7300" stop-opacity="0.627"/><stop offset="0.868" stop-color="#ff5200" stop-opacity="0.867"/><stop offset="1" stop-color="#ff4500"/></linearGradient><linearGradient id="c" x1="0.316" y1="0.311" x2="0.012" y2="0.005" gradientUnits="objectBoundingBox"><stop offset="0" stop-color="#833ab4" stop-opacity="0"/><stop offset="1" stop-color="#833ab4"/></linearGradient><linearGradient id="d" x1="0.582" y1="0.887" x2="0.418" y2="0.113" xlink:href="#c"/><linearGradient id="e" x1="0.605" y1="0.605" x2="-0.16" y2="-0.16" xlink:href="#c"/><linearGradient id="f" x1="0.376" y1="0.332" x2="-0.072" y2="-0.063" xlink:href="#c"/><linearGradient id="g" x1="0.816" y1="0.182" x2="0.172" y2="0.835" gradientUnits="objectBoundingBox"><stop offset="0" stop-color="#833ab4"/><stop offset="0.092" stop-color="#9c3495"/><stop offset="0.293" stop-color="#dc2546"/><stop offset="0.392" stop-color="#fd1d1d"/><stop offset="0.559" stop-color="#fc6831"/><stop offset="0.689" stop-color="#fc9b40"/><stop offset="0.752" stop-color="#fcaf45"/><stop offset="0.781" stop-color="#fdb750"/><stop offset="0.866" stop-color="#fecb6a"/><stop offset="0.942" stop-color="#ffd87a"/><stop offset="1" stop-color="#ffdc80"/></linearGradient></defs><path class="a" d="M23.589,4.293A4.37,4.37,0,0,0,19.707.411a72.489,72.489,0,0,0-15.414,0A4.37,4.37,0,0,0,.41,4.293a72.489,72.489,0,0,0,0,15.414,4.37,4.37,0,0,0,3.882,3.882,72.49,72.49,0,0,0,15.415,0,4.37,4.37,0,0,0,3.882-3.882,72.488,72.488,0,0,0,0-15.414Zm0,0" transform="translate(0.001 0)"/><path class="b" d="M7.672,409.805q.025.249.051.5a4.37,4.37,0,0,0,3.882,3.882,72.489,72.489,0,0,0,15.414,0A4.37,4.37,0,0,0,30.9,410.3q.027-.249.051-.5Zm0,0" transform="translate(-7.312 -390.595)"/><path class="c" d="M114.222,112.463a72.552,72.552,0,0,0,.408-8.283l-5.486-5.486a3.929,3.929,0,0,0-2.863-1.313c-2.419-.087-4.846-.083-7.265,0a3.882,3.882,0,0,0-3.775,3.4c-.064.35-.1.706-.152,1.059v5.819c.028.189.068.376.081.566a4.231,4.231,0,0,0,1.371,2.941l5.583,5.582a72.554,72.554,0,0,0,8.215-.409,4.37,4.37,0,0,0,3.882-3.882Zm0,0" transform="translate(-90.633 -92.756)"/><path class="d" d="M143.924,140.531a4.37,4.37,0,0,1-3.882,3.882,72.6,72.6,0,0,1-8.215.409l-5.574-5.574a3.908,3.908,0,0,0,2.466.947c2.419.091,4.846.088,7.265,0a3.888,3.888,0,0,0,3.839-3.886c.073-2.323.073-4.652,0-6.975a4.049,4.049,0,0,0-.973-2.569l5.482,5.482a72.682,72.682,0,0,1-.409,8.283Zm0,0" transform="translate(-120.335 -120.824)"/><path class="e" d="M180.668,175.238a3.844,3.844,0,1,0-5.431,5.431l8.894,8.894q.706-.062,1.412-.137a4.37,4.37,0,0,0,3.882-3.882q.075-.706.137-1.412Zm0,0" transform="translate(-165.836 -165.837)"/><path class="f" d="M332.085,158.261l-7.158-7.158a.914.914,0,1,0-1.28,1.28l8.31,8.31q.085-1.216.128-2.433Zm0,0" transform="translate(-308.131 -143.676)"/><path class="g" d="M95.09,101.844c.05-.353.088-.708.152-1.059a3.882,3.882,0,0,1,3.775-3.4c2.419-.083,4.846-.088,7.265,0a3.888,3.888,0,0,1,3.839,3.886q.109,3.485,0,6.975a3.887,3.887,0,0,1-3.839,3.886c-2.419.087-4.846.09-7.265,0a3.955,3.955,0,0,1-3.846-3.9c-.013-.19-.053-.377-.081-.566v-5.819Zm7.545,8.986c1.107,0,2.215.033,3.321-.008a2.7,2.7,0,0,0,2.84-2.831q.075-3.237,0-6.477a2.684,2.684,0,0,0-2.84-2.827q-3.3-.07-6.6,0a2.668,2.668,0,0,0-2.836,2.786q-.089,3.278,0,6.559a2.686,2.686,0,0,0,2.836,2.789c1.092.041,2.186.008,3.279.008Zm0,0" transform="translate(-90.632 -92.755)"/><g transform="translate(4.457 4.562)"><path class="h" d="M95.09,101.844c.05-.353.088-.708.152-1.059a3.882,3.882,0,0,1,3.775-3.4c2.419-.083,4.846-.088,7.265,0a3.888,3.888,0,0,1,3.839,3.886q.109,3.485,0,6.975a3.887,3.887,0,0,1-3.839,3.886c-2.419.087-4.846.09-7.265,0a3.955,3.955,0,0,1-3.846-3.9c-.013-.19-.053-.377-.081-.566v-5.819Zm7.545,8.986c1.107,0,2.215.033,3.321-.008a2.7,2.7,0,0,0,2.84-2.831q.075-3.237,0-6.477a2.684,2.684,0,0,0-2.84-2.827q-3.3-.07-6.6,0a2.668,2.668,0,0,0-2.836,2.786q-.089,3.278,0,6.559a2.686,2.686,0,0,0,2.836,2.789c1.092.041,2.186.008,3.279.008Zm0,0" transform="translate(-95.09 -97.317)"/><path class="h" d="M177.836,174a3.844,3.844,0,1,0,3.844,3.844A3.844,3.844,0,0,0,177.836,174Zm0,6.365a2.521,2.521,0,1,1,2.521-2.521A2.521,2.521,0,0,1,177.836,180.361Zm0,0" transform="translate(-170.294 -170.402)"/><path class="h" d="M325.115,151.657a.915.915,0,1,1-.914-.915A.914.914,0,0,1,325.115,151.657Zm0,0" transform="translate(-312.589 -148.238)"/></g></svg>