<svg xmlns="http://www.w3.org/2000/svg" xmlns:xlink="http://www.w3.org/1999/xlink" width="24" height="24" viewBox="0 0 24 24"><defs><style>.a{fill:url(#a);}.b{fill:url(#b);}.c{fill:url(#c);}.d{fill:#fff;}</style><linearGradient id="a" x1="0.332" y1="0.141" x2="0.585" y2="0.682" gradientUnits="objectBoundingBox"><stop offset="0" stop-color="#3457a0"/><stop offset="1" stop-color="#3b5998"/></linearGradient><linearGradient id="b" x1="0.714" y1="0.647" x2="-0.271" y2="-0.03" gradientUnits="objectBoundingBox"><stop offset="0" stop-color="#3457a0" stop-opacity="0"/><stop offset="1" stop-color="#1f3f77"/></linearGradient><linearGradient id="c" x1="0.5" y1="0.177" x2="0.5" y2="0.855" xlink:href="#b"/></defs><path class="a" d="M19.707,23.589a72.49,72.49,0,0,1-15.415,0A4.37,4.37,0,0,1,.411,19.707a72.489,72.489,0,0,1,0-15.414A4.37,4.37,0,0,1,4.293.41a72.489,72.489,0,0,1,15.414,0,4.37,4.37,0,0,1,3.882,3.882,72.489,72.489,0,0,1,0,15.414,4.37,4.37,0,0,1-3.882,3.882Zm0,0" transform="translate(0 0.001)"/><path class="b" d="M49.766,32.644A3.878,3.878,0,0,0,46.321,29.2a64.349,64.349,0,0,0-13.678,0A3.878,3.878,0,0,0,29.2,32.644a64.348,64.348,0,0,0,0,13.678,3.878,3.878,0,0,0,3.445,3.445,64.324,64.324,0,0,0,13.678,0,3.878,3.878,0,0,0,3.445-3.445A64.324,64.324,0,0,0,49.766,32.644Zm0,0" transform="translate(-27.482 -27.483)"/><path class="c" d="M7.672,409.805q.025.249.051.5a4.37,4.37,0,0,0,3.882,3.882,72.489,72.489,0,0,0,15.414,0A4.37,4.37,0,0,0,30.9,410.3q.027-.249.051-.5Zm0,0" transform="translate(-7.312 -390.595)"/><g transform="translate(4.001 -43.344)"><g transform="translate(-0.001 51.186)"><g transform="translate(0 1.432)"><path class="d" d="M141.353,74.781c.186.079.371.16.558.234a.22.22,0,0,1,.143.188,1.419,1.419,0,0,1-.042.623.271.271,0,0,1-.265.237.313.313,0,0,0-.132.065,1.292,1.292,0,0,0-.1.089c.382.163.778.344,1.172.546a1.9,1.9,0,0,1,.5.363l.129.134V77.9h3.1a1.372,1.372,0,0,0-.983-1.131c-.351-.129-.7-.279-1.037-.434a1.591,1.591,0,0,1-.257-.209.331.331,0,0,0-.131-.065.271.271,0,0,1-.266-.238,1.423,1.423,0,0,1-.042-.622.219.219,0,0,1,.143-.188c.188-.073.372-.155.558-.234.139-.059.147-.107.1-.251a5.467,5.467,0,0,1-.317-1.4,5.878,5.878,0,0,0-.09-.917h-.011c-.006-.028-.01-.056-.017-.083a1.275,1.275,0,0,0-1.178-.847h-.011a.824.824,0,0,0-.107.006,4.01,4.01,0,0,0-.556.211.827.827,0,0,0-.494.548,3.919,3.919,0,0,0-.137,1.085,5.478,5.478,0,0,1-.317,1.4C141.206,74.673,141.215,74.722,141.353,74.781Z" transform="translate(-130.41 -71.176)"/><path class="d" d="M3.306,75.974l.145-.137a2.255,2.255,0,0,1,.5-.344l.145-.079c.206-.111.411-.222.623-.323.112-.053.228-.1.342-.149-.024-.067-.048-.133-.069-.2-.027-.086-.044-.172-.155-.2a.12.12,0,0,1-.067-.086q-.034-.249-.051-.5a.16.16,0,0,1,.04-.108,1.068,1.068,0,0,0,.26-.57,2.663,2.663,0,0,1,.109-.316c.042-.144.076-.29.109-.436.012-.053.005-.109.013-.163.012-.079.01-.139-.085-.17-.027-.009-.048-.07-.048-.109-.005-.233,0-.466,0-.7,0-.143,0-.287-.01-.429a.9.9,0,0,0-.382-.632,1.493,1.493,0,0,0-1.007-.441.219.219,0,0,0-.025,0,.2.2,0,0,0-.025,0,1.489,1.489,0,0,0-1.006.441.9.9,0,0,0-.382.632c-.01.143-.01.287-.01.429,0,.234,0,.467,0,.7,0,.038-.022.1-.048.109-.094.03-.1.091-.084.17.009.054,0,.111.013.163.032.146.067.292.109.436a2.748,2.748,0,0,1,.109.316,1.066,1.066,0,0,0,.261.57.167.167,0,0,1,.04.108c-.011.168-.028.334-.051.5a.12.12,0,0,1-.067.086c-.111.023-.128.109-.155.2-.035.114-.072.229-.117.339a.18.18,0,0,1-.082.085c-.2.086-.4.165-.6.249s-.426.174-.632.272-.421.217-.628.329A1.547,1.547,0,0,0,0,76.245v.366H3.3v-.637h0Z" transform="translate(0.001 -69.886)"/></g><path class="d" d="M57.5,58.613a22.871,22.871,0,0,0-2.239-.973.279.279,0,0,1-.148-.115,3.618,3.618,0,0,1-.149-.426c-.028-.092-.052-.179-.154-.223a.127.127,0,0,1-.051-.1c.006-.334-.071-.684.176-.976a.24.24,0,0,0,.016-.032,5.411,5.411,0,0,1,.344-.9.049.049,0,0,0,.006-.023c.021-.208.045-.415.062-.622a.1.1,0,0,0-.043-.08c-.1-.037-.1-.119-.1-.2q0-.608,0-1.216a.774.774,0,0,0-.247-.606c-.2-.182-.411-.358-.619-.535-.1-.085-.109-.15-.015-.245a1.28,1.28,0,0,1,.143-.105l-.03-.048a1.177,1.177,0,0,0-.188,0c-.23.037-.463.069-.688.123a2.864,2.864,0,0,0-1.2.526,1.085,1.085,0,0,0-.456.754c-.011.171-.01.342-.011.513,0,.278,0,.558,0,.835,0,.046-.027.12-.058.13-.112.037-.116.108-.1.2.01.064,0,.132.016.2.039.174.08.348.13.52a3.118,3.118,0,0,1,.13.378,1.276,1.276,0,0,0,.312.681.2.2,0,0,1,.048.129q-.021.3-.061.6a.147.147,0,0,1-.08.1c-.133.028-.153.13-.184.233-.042.137-.086.273-.14.4a.2.2,0,0,1-.1.1c-.236.1-.476.2-.714.3-.253.106-.508.208-.754.325s-.5.258-.751.392a1.8,1.8,0,0,0-.4.273v.436h8.676v-.455A1.408,1.408,0,0,0,57.5,58.613Z" transform="translate(-45.429 -51.186)"/></g></g></svg>