<svg xmlns="http://www.w3.org/2000/svg" xmlns:xlink="http://www.w3.org/1999/xlink" width="24" height="24" viewBox="0 0 24 24"><defs><style>.a{fill:#ef0000;}.b{fill:url(#a);}.c{fill:url(#b);}.d{fill:#fff;}</style><linearGradient id="a" x1="0.369" y1="0.426" x2="-1.54" y2="-0.648" gradientUnits="objectBoundingBox"><stop offset="0" stop-color="#a1b5d8" stop-opacity="0"/><stop offset="0.309" stop-color="#90a2bd" stop-opacity="0.31"/><stop offset="0.755" stop-color="#7c8b9c" stop-opacity="0.757"/><stop offset="1" stop-color="#748290"/></linearGradient><linearGradient id="b" x1="0.5" y1="0.413" x2="0.5" y2="1.193" xlink:href="#a"/></defs><g transform="translate(0 0)"><path class="a" d="M19.707,23.589a72.491,72.491,0,0,1-15.415,0A4.37,4.37,0,0,1,.411,19.707a72.488,72.488,0,0,1,0-15.414A4.37,4.37,0,0,1,4.293.41a72.488,72.488,0,0,1,15.414,0,4.37,4.37,0,0,1,3.882,3.882,72.488,72.488,0,0,1,0,15.414,4.37,4.37,0,0,1-3.882,3.882Zm0,0" transform="translate(0 0)"/><path class="b" d="M49.766,32.644A3.878,3.878,0,0,0,46.321,29.2a64.35,64.35,0,0,0-13.678,0A3.878,3.878,0,0,0,29.2,32.644a64.347,64.347,0,0,0,0,13.678,3.878,3.878,0,0,0,3.445,3.445,64.323,64.323,0,0,0,13.678,0,3.878,3.878,0,0,0,3.445-3.445,64.323,64.323,0,0,0,0-13.678Zm0,0" transform="translate(-27.482 -27.483)"/><path class="c" d="M7.672,409.805q.025.249.051.5a4.37,4.37,0,0,0,3.882,3.882,72.488,72.488,0,0,0,15.414,0A4.37,4.37,0,0,0,30.9,410.3q.027-.249.051-.5Zm0,0" transform="translate(-7.312 -390.595)"/><path class="d" d="M225.8,218.61l10-6-10-6Zm0,0" transform="translate(-217.801 -200.61)"/></g></svg>